<svg xmlns="http://www.w3.org/2000/svg" xmlns:xlink="http://www.w3.org/1999/xlink" width="160" zoomAndPan="magnify" viewBox="0 0 120 30.000001" height="40" preserveAspectRatio="xMidYMid meet" version="1.0"><defs><g/></defs><g fill="#d1540e" fill-opacity="1"><g transform="translate(19.019949, 24.02927)"><g><path d="M 18.296875 -2.796875 C 18.242188 -2.347656 18.171875 -1.910156 18.078125 -1.484375 C 17.984375 -1.054688 17.867188 -0.675781 17.734375 -0.34375 C 17.597656 -0.0078125 17.421875 0.253906 17.203125 0.453125 C 16.992188 0.648438 16.75 0.75 16.46875 0.75 C 16.195312 0.75 15.945312 0.535156 15.71875 0.109375 C 15.5 -0.304688 15.289062 -0.859375 15.09375 -1.546875 C 14.90625 -2.242188 14.726562 -3.023438 14.5625 -3.890625 C 14.40625 -4.765625 14.257812 -5.648438 14.125 -6.546875 C 14 -7.441406 13.894531 -8.316406 13.8125 -9.171875 C 13.726562 -10.023438 13.660156 -10.769531 13.609375 -11.40625 C 13.503906 -10.75 13.382812 -10.019531 13.25 -9.21875 C 13.113281 -8.414062 12.953125 -7.597656 12.765625 -6.765625 C 12.578125 -5.941406 12.367188 -5.132812 12.140625 -4.34375 C 11.921875 -3.550781 11.679688 -2.84375 11.421875 -2.21875 C 11.171875 -1.59375 10.898438 -1.09375 10.609375 -0.71875 C 10.316406 -0.34375 10.007812 -0.15625 9.6875 -0.15625 C 9.394531 -0.15625 9.101562 -0.347656 8.8125 -0.734375 C 8.519531 -1.128906 8.238281 -1.644531 7.96875 -2.28125 C 7.695312 -2.925781 7.441406 -3.640625 7.203125 -4.421875 C 6.960938 -5.210938 6.738281 -6.003906 6.53125 -6.796875 C 6.320312 -7.597656 6.140625 -8.351562 5.984375 -9.0625 C 5.835938 -9.769531 5.722656 -10.363281 5.640625 -10.84375 C 5.640625 -10.476562 5.632812 -10.078125 5.625 -9.640625 C 5.613281 -9.210938 5.609375 -8.898438 5.609375 -8.703125 C 5.609375 -8.617188 5.601562 -8.335938 5.59375 -7.859375 C 5.582031 -7.378906 5.550781 -6.804688 5.5 -6.140625 C 5.457031 -5.484375 5.382812 -4.773438 5.28125 -4.015625 C 5.175781 -3.253906 5.023438 -2.546875 4.828125 -1.890625 C 4.628906 -1.242188 4.382812 -0.695312 4.09375 -0.25 C 3.800781 0.1875 3.441406 0.425781 3.015625 0.46875 C 2.679688 0.3125 2.394531 0.0507812 2.15625 -0.3125 C 1.925781 -0.6875 1.734375 -1.117188 1.578125 -1.609375 C 1.429688 -2.109375 1.316406 -2.640625 1.234375 -3.203125 C 1.148438 -3.765625 1.082031 -4.3125 1.03125 -4.84375 C 0.976562 -5.382812 0.945312 -5.882812 0.9375 -6.34375 C 0.925781 -6.8125 0.921875 -7.191406 0.921875 -7.484375 C 0.921875 -7.992188 0.953125 -8.632812 1.015625 -9.40625 C 1.078125 -10.1875 1.175781 -11.003906 1.3125 -11.859375 C 1.445312 -12.710938 1.625 -13.566406 1.84375 -14.421875 C 2.0625 -15.273438 2.328125 -16.039062 2.640625 -16.71875 C 2.960938 -17.394531 3.332031 -17.945312 3.75 -18.375 C 4.164062 -18.800781 4.648438 -19.015625 5.203125 -19.015625 C 5.453125 -19.015625 5.722656 -18.867188 6.015625 -18.578125 C 6.304688 -18.285156 6.597656 -17.90625 6.890625 -17.4375 C 7.179688 -16.96875 7.460938 -16.441406 7.734375 -15.859375 C 8.003906 -15.273438 8.265625 -14.6875 8.515625 -14.09375 C 8.765625 -13.507812 8.984375 -12.945312 9.171875 -12.40625 C 9.359375 -11.875 9.515625 -11.421875 9.640625 -11.046875 C 9.773438 -11.453125 9.941406 -11.925781 10.140625 -12.46875 C 10.347656 -13.019531 10.578125 -13.585938 10.828125 -14.171875 C 11.078125 -14.765625 11.347656 -15.347656 11.640625 -15.921875 C 11.941406 -16.492188 12.253906 -17.003906 12.578125 -17.453125 C 12.898438 -17.910156 13.226562 -18.28125 13.5625 -18.5625 C 13.894531 -18.84375 14.234375 -18.984375 14.578125 -18.984375 C 15.171875 -18.984375 15.679688 -18.757812 16.109375 -18.3125 C 16.535156 -17.875 16.894531 -17.300781 17.1875 -16.59375 C 17.476562 -15.882812 17.707031 -15.085938 17.875 -14.203125 C 18.050781 -13.328125 18.1875 -12.457031 18.28125 -11.59375 C 18.375 -10.726562 18.429688 -9.921875 18.453125 -9.171875 C 18.484375 -8.421875 18.5 -7.816406 18.5 -7.359375 C 18.5 -7.171875 18.5 -6.910156 18.5 -6.578125 C 18.5 -6.253906 18.492188 -5.890625 18.484375 -5.484375 C 18.472656 -5.078125 18.453125 -4.640625 18.421875 -4.171875 C 18.390625 -3.710938 18.347656 -3.253906 18.296875 -2.796875 Z M 18.296875 -2.796875 "/></g></g></g><g fill="#d1540e" fill-opacity="1"><g transform="translate(38.565191, 24.02927)"><g><path d="M 14.5 -9 C 14.5 -8.289062 14.460938 -7.566406 14.390625 -6.828125 C 14.328125 -6.085938 14.207031 -5.363281 14.03125 -4.65625 C 13.863281 -3.957031 13.628906 -3.296875 13.328125 -2.671875 C 13.035156 -2.046875 12.65625 -1.5 12.1875 -1.03125 C 11.726562 -0.5625 11.175781 -0.191406 10.53125 0.078125 C 9.882812 0.347656 9.125 0.484375 8.25 0.484375 C 6.96875 0.484375 5.851562 0.1875 4.90625 -0.40625 C 3.957031 -1.007812 3.164062 -1.773438 2.53125 -2.703125 C 1.90625 -3.628906 1.4375 -4.671875 1.125 -5.828125 C 0.820312 -6.984375 0.671875 -8.125 0.671875 -9.25 C 0.671875 -9.363281 0.671875 -9.472656 0.671875 -9.578125 C 0.671875 -9.679688 0.675781 -9.773438 0.6875 -9.859375 C 0.707031 -10.222656 0.738281 -10.710938 0.78125 -11.328125 C 0.820312 -11.941406 0.894531 -12.597656 1 -13.296875 C 1.101562 -13.992188 1.234375 -14.707031 1.390625 -15.4375 C 1.554688 -16.175781 1.769531 -16.835938 2.03125 -17.421875 C 2.300781 -18.003906 2.625 -18.484375 3 -18.859375 C 3.375 -19.234375 3.816406 -19.421875 4.328125 -19.421875 C 4.703125 -19.421875 5.015625 -19.304688 5.265625 -19.078125 C 5.523438 -18.859375 5.738281 -18.582031 5.90625 -18.25 C 6.070312 -17.914062 6.1875 -17.566406 6.25 -17.203125 C 6.320312 -16.835938 6.359375 -16.5 6.359375 -16.1875 C 6.359375 -15.726562 6.3125 -15.265625 6.21875 -14.796875 C 6.125 -14.328125 6.03125 -13.863281 5.9375 -13.40625 C 5.800781 -12.664062 5.691406 -11.925781 5.609375 -11.1875 C 5.523438 -10.457031 5.484375 -9.707031 5.484375 -8.9375 C 5.484375 -8.550781 5.503906 -8.070312 5.546875 -7.5 C 5.585938 -6.9375 5.691406 -6.394531 5.859375 -5.875 C 6.035156 -5.351562 6.28125 -4.910156 6.59375 -4.546875 C 6.914062 -4.179688 7.347656 -4 7.890625 -4 C 8.421875 -4 8.84375 -4.175781 9.15625 -4.53125 C 9.476562 -4.894531 9.710938 -5.320312 9.859375 -5.8125 C 10.015625 -6.3125 10.113281 -6.832031 10.15625 -7.375 C 10.195312 -7.925781 10.21875 -8.394531 10.21875 -8.78125 C 10.21875 -9.914062 10.125 -11.03125 9.9375 -12.125 C 9.75 -13.226562 9.503906 -14.328125 9.203125 -15.421875 C 9.109375 -15.710938 9.03125 -16.003906 8.96875 -16.296875 C 8.914062 -16.585938 8.890625 -16.878906 8.890625 -17.171875 C 8.890625 -17.640625 9.03125 -18.050781 9.3125 -18.40625 C 9.59375 -18.769531 9.988281 -18.953125 10.5 -18.953125 C 10.925781 -18.953125 11.320312 -18.785156 11.6875 -18.453125 C 12.0625 -18.117188 12.394531 -17.679688 12.6875 -17.140625 C 12.976562 -16.609375 13.226562 -16.007812 13.4375 -15.34375 C 13.644531 -14.675781 13.828125 -14.015625 13.984375 -13.359375 C 14.140625 -12.703125 14.253906 -12.070312 14.328125 -11.46875 C 14.410156 -10.875 14.457031 -10.390625 14.46875 -10.015625 C 14.488281 -9.847656 14.5 -9.679688 14.5 -9.515625 C 14.5 -9.359375 14.5 -9.1875 14.5 -9 Z M 14.5 -9 "/></g></g></g><g fill="#d1540e" fill-opacity="1"><g transform="translate(53.986208, 24.02927)"><g><path d="M 11.21875 -18.5 C 11.21875 -17.851562 10.992188 -17.265625 10.546875 -16.734375 C 10.109375 -16.203125 9.566406 -15.726562 8.921875 -15.3125 C 8.285156 -14.894531 7.613281 -14.53125 6.90625 -14.21875 C 6.207031 -13.90625 5.601562 -13.648438 5.09375 -13.453125 C 5.09375 -13.085938 5.082031 -12.71875 5.0625 -12.34375 C 5.050781 -11.96875 5.03125 -11.59375 5 -11.21875 C 5.539062 -11.488281 6.148438 -11.742188 6.828125 -11.984375 C 7.515625 -12.222656 8.164062 -12.34375 8.78125 -12.34375 C 9.28125 -12.34375 9.6875 -12.238281 10 -12.03125 C 10.320312 -11.832031 10.484375 -11.476562 10.484375 -10.96875 C 10.484375 -10.40625 10.28125 -9.898438 9.875 -9.453125 C 9.476562 -9.003906 8.992188 -8.609375 8.421875 -8.265625 C 7.859375 -7.929688 7.269531 -7.644531 6.65625 -7.40625 C 6.039062 -7.164062 5.519531 -6.976562 5.09375 -6.84375 C 5.09375 -6.28125 5.082031 -5.71875 5.0625 -5.15625 C 5.050781 -4.601562 5.03125 -4.054688 5 -3.515625 C 4.976562 -3.234375 4.945312 -2.890625 4.90625 -2.484375 C 4.863281 -2.078125 4.773438 -1.679688 4.640625 -1.296875 C 4.515625 -0.910156 4.332031 -0.578125 4.09375 -0.296875 C 3.851562 -0.015625 3.546875 0.125 3.171875 0.125 C 2.816406 0.125 2.507812 -0.046875 2.25 -0.390625 C 2 -0.742188 1.78125 -1.191406 1.59375 -1.734375 C 1.414062 -2.285156 1.269531 -2.894531 1.15625 -3.5625 C 1.050781 -4.238281 0.96875 -4.898438 0.90625 -5.546875 C 0.84375 -6.203125 0.804688 -6.800781 0.796875 -7.34375 C 0.796875 -7.894531 0.796875 -8.316406 0.796875 -8.609375 C 0.796875 -8.828125 0.796875 -9.15625 0.796875 -9.59375 C 0.804688 -10.03125 0.816406 -10.515625 0.828125 -11.046875 C 0.835938 -11.578125 0.851562 -12.128906 0.875 -12.703125 C 0.90625 -13.285156 0.9375 -13.835938 0.96875 -14.359375 C 1.007812 -14.878906 1.054688 -15.335938 1.109375 -15.734375 C 1.171875 -16.140625 1.242188 -16.4375 1.328125 -16.625 C 1.515625 -17 1.960938 -17.367188 2.671875 -17.734375 C 3.378906 -18.109375 4.171875 -18.4375 5.046875 -18.71875 C 5.921875 -19 6.769531 -19.226562 7.59375 -19.40625 C 8.425781 -19.582031 9.0625 -19.671875 9.5 -19.671875 C 9.707031 -19.671875 9.910156 -19.65625 10.109375 -19.625 C 10.304688 -19.601562 10.488281 -19.550781 10.65625 -19.46875 C 10.820312 -19.382812 10.957031 -19.265625 11.0625 -19.109375 C 11.164062 -18.953125 11.21875 -18.75 11.21875 -18.5 Z M 11.21875 -18.5 "/></g></g></g><g fill="#d1540e" fill-opacity="1"><g transform="translate(64.565743, 24.02927)"><g><path d="M 11.21875 -18.5 C 11.21875 -17.851562 10.992188 -17.265625 10.546875 -16.734375 C 10.109375 -16.203125 9.566406 -15.726562 8.921875 -15.3125 C 8.285156 -14.894531 7.613281 -14.53125 6.90625 -14.21875 C 6.207031 -13.90625 5.601562 -13.648438 5.09375 -13.453125 C 5.09375 -13.085938 5.082031 -12.71875 5.0625 -12.34375 C 5.050781 -11.96875 5.03125 -11.59375 5 -11.21875 C 5.539062 -11.488281 6.148438 -11.742188 6.828125 -11.984375 C 7.515625 -12.222656 8.164062 -12.34375 8.78125 -12.34375 C 9.28125 -12.34375 9.6875 -12.238281 10 -12.03125 C 10.320312 -11.832031 10.484375 -11.476562 10.484375 -10.96875 C 10.484375 -10.40625 10.28125 -9.898438 9.875 -9.453125 C 9.476562 -9.003906 8.992188 -8.609375 8.421875 -8.265625 C 7.859375 -7.929688 7.269531 -7.644531 6.65625 -7.40625 C 6.039062 -7.164062 5.519531 -6.976562 5.09375 -6.84375 C 5.09375 -6.28125 5.082031 -5.71875 5.0625 -5.15625 C 5.050781 -4.601562 5.03125 -4.054688 5 -3.515625 C 4.976562 -3.234375 4.945312 -2.890625 4.90625 -2.484375 C 4.863281 -2.078125 4.773438 -1.679688 4.640625 -1.296875 C 4.515625 -0.910156 4.332031 -0.578125 4.09375 -0.296875 C 3.851562 -0.015625 3.546875 0.125 3.171875 0.125 C 2.816406 0.125 2.507812 -0.046875 2.25 -0.390625 C 2 -0.742188 1.78125 -1.191406 1.59375 -1.734375 C 1.414062 -2.285156 1.269531 -2.894531 1.15625 -3.5625 C 1.050781 -4.238281 0.96875 -4.898438 0.90625 -5.546875 C 0.84375 -6.203125 0.804688 -6.800781 0.796875 -7.34375 C 0.796875 -7.894531 0.796875 -8.316406 0.796875 -8.609375 C 0.796875 -8.828125 0.796875 -9.15625 0.796875 -9.59375 C 0.804688 -10.03125 0.816406 -10.515625 0.828125 -11.046875 C 0.835938 -11.578125 0.851562 -12.128906 0.875 -12.703125 C 0.90625 -13.285156 0.9375 -13.835938 0.96875 -14.359375 C 1.007812 -14.878906 1.054688 -15.335938 1.109375 -15.734375 C 1.171875 -16.140625 1.242188 -16.4375 1.328125 -16.625 C 1.515625 -17 1.960938 -17.367188 2.671875 -17.734375 C 3.378906 -18.109375 4.171875 -18.4375 5.046875 -18.71875 C 5.921875 -19 6.769531 -19.226562 7.59375 -19.40625 C 8.425781 -19.582031 9.0625 -19.671875 9.5 -19.671875 C 9.707031 -19.671875 9.910156 -19.65625 10.109375 -19.625 C 10.304688 -19.601562 10.488281 -19.550781 10.65625 -19.46875 C 10.820312 -19.382812 10.957031 -19.265625 11.0625 -19.109375 C 11.164062 -18.953125 11.21875 -18.75 11.21875 -18.5 Z M 11.21875 -18.5 "/></g></g></g><g fill="#d1540e" fill-opacity="1"><g transform="translate(75.145278, 24.02927)"><g><path d="M 9.640625 -17.390625 C 9.640625 -17.066406 9.566406 -16.773438 9.421875 -16.515625 C 9.273438 -16.265625 9.082031 -16.050781 8.84375 -15.875 C 8.601562 -15.695312 8.335938 -15.546875 8.046875 -15.421875 C 7.753906 -15.304688 7.472656 -15.222656 7.203125 -15.171875 C 7.160156 -13.234375 7.082031 -11.367188 6.96875 -9.578125 C 6.863281 -7.785156 6.691406 -5.929688 6.453125 -4.015625 L 6.609375 -4.015625 C 6.878906 -4.015625 7.144531 -3.984375 7.40625 -3.921875 C 7.675781 -3.867188 7.914062 -3.769531 8.125 -3.625 C 8.34375 -3.476562 8.515625 -3.296875 8.640625 -3.078125 C 8.773438 -2.867188 8.84375 -2.613281 8.84375 -2.3125 C 8.84375 -1.914062 8.71875 -1.570312 8.46875 -1.28125 C 8.21875 -0.988281 7.890625 -0.738281 7.484375 -0.53125 C 7.085938 -0.332031 6.640625 -0.164062 6.140625 -0.03125 C 5.648438 0.101562 5.15625 0.207031 4.65625 0.28125 C 4.164062 0.363281 3.695312 0.421875 3.25 0.453125 C 2.8125 0.492188 2.453125 0.515625 2.171875 0.515625 C 1.972656 0.515625 1.722656 0.503906 1.421875 0.484375 C 1.117188 0.472656 0.832031 0.421875 0.5625 0.328125 C 0.300781 0.242188 0.078125 0.117188 -0.109375 -0.046875 C -0.296875 -0.222656 -0.390625 -0.457031 -0.390625 -0.75 C -0.390625 -1.101562 -0.316406 -1.421875 -0.171875 -1.703125 C -0.0234375 -1.984375 0.164062 -2.234375 0.40625 -2.453125 C 0.644531 -2.679688 0.914062 -2.863281 1.21875 -3 C 1.519531 -3.132812 1.820312 -3.238281 2.125 -3.3125 C 2.25 -4.25 2.359375 -5.179688 2.453125 -6.109375 C 2.554688 -7.035156 2.628906 -7.976562 2.671875 -8.9375 C 2.703125 -9.914062 2.734375 -10.878906 2.765625 -11.828125 C 2.796875 -12.773438 2.832031 -13.726562 2.875 -14.6875 C 2.75 -14.664062 2.632812 -14.648438 2.53125 -14.640625 C 2.425781 -14.628906 2.332031 -14.625 2.25 -14.625 C 2.007812 -14.625 1.753906 -14.648438 1.484375 -14.703125 C 1.210938 -14.753906 0.957031 -14.84375 0.71875 -14.96875 C 0.476562 -15.101562 0.273438 -15.265625 0.109375 -15.453125 C -0.046875 -15.640625 -0.125 -15.878906 -0.125 -16.171875 C -0.125 -16.742188 0.113281 -17.21875 0.59375 -17.59375 C 1.082031 -17.976562 1.664062 -18.269531 2.34375 -18.46875 C 3.019531 -18.675781 3.707031 -18.816406 4.40625 -18.890625 C 5.101562 -18.972656 5.664062 -19.015625 6.09375 -19.015625 C 6.332031 -19.015625 6.648438 -18.992188 7.046875 -18.953125 C 7.441406 -18.921875 7.828125 -18.84375 8.203125 -18.71875 C 8.585938 -18.601562 8.921875 -18.441406 9.203125 -18.234375 C 9.492188 -18.035156 9.640625 -17.753906 9.640625 -17.390625 Z M 9.640625 -17.390625 "/></g></g></g><g fill="#d1540e" fill-opacity="1"><g transform="translate(84.367149, 24.02927)"><g><path d="M 15.671875 -10.984375 C 15.671875 -10.609375 15.65625 -10.078125 15.625 -9.390625 C 15.59375 -8.703125 15.53125 -7.941406 15.4375 -7.109375 C 15.34375 -6.273438 15.207031 -5.425781 15.03125 -4.5625 C 14.863281 -3.707031 14.644531 -2.925781 14.375 -2.21875 C 14.101562 -1.519531 13.769531 -0.945312 13.375 -0.5 C 12.976562 -0.0507812 12.507812 0.171875 11.96875 0.171875 C 11.457031 0.171875 10.988281 0.0234375 10.5625 -0.265625 C 10.132812 -0.566406 9.75 -0.9375 9.40625 -1.375 C 9.0625 -1.8125 8.757812 -2.273438 8.5 -2.765625 C 8.25 -3.265625 8.035156 -3.71875 7.859375 -4.125 C 7.503906 -5 7.144531 -5.859375 6.78125 -6.703125 C 6.425781 -7.546875 6.085938 -8.40625 5.765625 -9.28125 L 5.765625 -8.5625 C 5.765625 -7.820312 5.757812 -7.085938 5.75 -6.359375 C 5.738281 -5.640625 5.679688 -4.921875 5.578125 -4.203125 C 5.546875 -3.910156 5.507812 -3.570312 5.46875 -3.1875 C 5.425781 -2.800781 5.363281 -2.421875 5.28125 -2.046875 C 5.195312 -1.671875 5.070312 -1.320312 4.90625 -1 C 4.738281 -0.675781 4.519531 -0.4375 4.25 -0.28125 C 4.09375 -0.195312 3.953125 -0.144531 3.828125 -0.125 C 3.703125 -0.113281 3.5625 -0.0859375 3.40625 -0.046875 L 3.328125 -0.046875 C 2.929688 -0.046875 2.597656 -0.175781 2.328125 -0.4375 C 2.054688 -0.707031 1.828125 -1.050781 1.640625 -1.46875 C 1.453125 -1.882812 1.300781 -2.351562 1.1875 -2.875 C 1.082031 -3.394531 1 -3.90625 0.9375 -4.40625 C 0.875 -4.914062 0.832031 -5.382812 0.8125 -5.8125 C 0.800781 -6.238281 0.796875 -6.582031 0.796875 -6.84375 C 0.796875 -7.226562 0.8125 -7.800781 0.84375 -8.5625 C 0.875 -9.320312 0.945312 -10.164062 1.0625 -11.09375 C 1.175781 -12.019531 1.320312 -12.96875 1.5 -13.9375 C 1.675781 -14.90625 1.910156 -15.785156 2.203125 -16.578125 C 2.492188 -17.378906 2.84375 -18.03125 3.25 -18.53125 C 3.664062 -19.039062 4.144531 -19.296875 4.6875 -19.296875 C 5.21875 -19.296875 5.691406 -19.085938 6.109375 -18.671875 C 6.523438 -18.265625 6.894531 -17.78125 7.21875 -17.21875 C 7.550781 -16.65625 7.828125 -16.066406 8.046875 -15.453125 C 8.265625 -14.835938 8.453125 -14.320312 8.609375 -13.90625 C 8.898438 -13.101562 9.179688 -12.304688 9.453125 -11.515625 C 9.722656 -10.722656 9.988281 -9.914062 10.25 -9.09375 C 10.257812 -9.0625 10.289062 -8.96875 10.34375 -8.8125 C 10.394531 -8.65625 10.457031 -8.484375 10.53125 -8.296875 C 10.59375 -8.097656 10.675781 -7.867188 10.78125 -7.609375 C 10.78125 -7.828125 10.773438 -7.984375 10.765625 -8.078125 C 10.765625 -8.171875 10.765625 -8.253906 10.765625 -8.328125 C 10.765625 -8.410156 10.765625 -8.507812 10.765625 -8.625 C 10.765625 -8.75 10.765625 -8.941406 10.765625 -9.203125 C 10.742188 -9.765625 10.726562 -10.328125 10.71875 -10.890625 C 10.707031 -11.453125 10.703125 -12.003906 10.703125 -12.546875 C 10.703125 -12.785156 10.707031 -13.117188 10.71875 -13.546875 C 10.726562 -13.972656 10.753906 -14.429688 10.796875 -14.921875 C 10.835938 -15.410156 10.898438 -15.898438 10.984375 -16.390625 C 11.078125 -16.890625 11.203125 -17.335938 11.359375 -17.734375 C 11.523438 -18.140625 11.726562 -18.46875 11.96875 -18.71875 C 12.21875 -18.976562 12.523438 -19.109375 12.890625 -19.109375 C 13.316406 -19.109375 13.679688 -18.945312 13.984375 -18.625 C 14.296875 -18.300781 14.550781 -17.882812 14.75 -17.375 C 14.957031 -16.875 15.117188 -16.3125 15.234375 -15.6875 C 15.359375 -15.0625 15.453125 -14.453125 15.515625 -13.859375 C 15.585938 -13.265625 15.628906 -12.707031 15.640625 -12.1875 C 15.660156 -11.675781 15.671875 -11.273438 15.671875 -10.984375 Z M 15.671875 -10.984375 "/></g></g></g></svg>